<svg width="37" height="15" viewBox="0 0 37 15" fill="none"
  xmlns="http://www.w3.org/2000/svg">
  <path d="M35.3182 11.3869H1.68182C1.23577 11.3869 0.807995 11.4553 0.492593 11.5771C0.177191 11.6989 0 11.8642 0 12.0365C0 12.2088 0.177191 12.374 0.492593 12.4958C0.807995 12.6177 1.23577 12.6861 1.68182 12.6861H35.3182C35.7642 12.6861 36.192 12.6177 36.5074 12.4958C36.8228 12.374 37 12.2088 37 12.0365C37 11.8642 36.8228 11.6989 36.5074 11.5771C36.192 11.4553 35.7642 11.3869 35.3182 11.3869ZM35.3182 13.9853H1.68182C1.23577 13.9853 0.807995 14.0538 0.492593 14.1756C0.177191 14.2974 0 14.4627 0 14.635C0 14.8072 0.177191 14.9725 0.492593 15.0943C0.807995 15.2161 1.23577 15.2846 1.68182 15.2846H35.3182C35.7642 15.2846 36.192 15.2161 36.5074 15.0943C36.8228 14.9725 37 14.8072 37 14.635C37 14.4627 36.8228 14.2974 36.5074 14.1756C36.192 14.0538 35.7642 13.9853 35.3182 13.9853ZM8.40909 4.89064C8.07646 4.89064 7.7513 4.92874 7.47472 5.00013C7.19815 5.07151 6.98259 5.17296 6.85529 5.29167C6.728 5.41037 6.69469 5.54099 6.75959 5.667C6.82448 5.79301 6.98466 5.90877 7.21987 5.99962C7.45507 6.09047 7.75474 6.15234 8.08098 6.1774C8.40722 6.20247 8.74538 6.1896 9.05269 6.14044C9.36001 6.09127 9.62267 6.00801 9.80747 5.90118C9.99227 5.79435 10.0909 5.66875 10.0909 5.54027C10.0909 5.36798 9.91372 5.20274 9.59832 5.08091C9.28291 4.95909 8.85514 4.89064 8.40909 4.89064ZM31.9545 0.99292H5.04545C3.70732 0.99292 2.42399 1.19825 1.47778 1.56373C0.531573 1.92921 0 2.42491 0 2.94178V8.13875C0 8.65562 0.531573 9.15132 1.47778 9.5168C2.42399 9.88229 3.70732 10.0876 5.04545 10.0876H31.9545C33.2927 10.0876 34.576 9.88229 35.5222 9.5168C36.4684 9.15132 37 8.65562 37 8.13875V2.94178C37 2.42491 36.4684 1.92921 35.5222 1.56373C34.576 1.19825 33.2927 0.99292 31.9545 0.99292ZM33.6364 8.13875C33.6364 8.31104 33.4592 8.47627 33.1438 8.5981C32.8284 8.71993 32.4006 8.78837 31.9545 8.78837H5.04545C4.59941 8.78837 4.17163 8.71993 3.85623 8.5981C3.54083 8.47627 3.36364 8.31104 3.36364 8.13875V2.94178C3.36364 2.76949 3.54083 2.60426 3.85623 2.48243C4.17163 2.3606 4.59941 2.29216 5.04545 2.29216H31.9545C32.4006 2.29216 32.8284 2.3606 33.1438 2.48243C33.4592 2.60426 33.6364 2.76949 33.6364 2.94178V8.13875ZM18.5 3.5914C17.5021 3.5914 16.5266 3.7057 15.6969 3.91985C14.8672 4.13399 14.2205 4.43836 13.8386 4.79447C13.4567 5.15058 13.3568 5.54243 13.5515 5.92047C13.7462 6.29851 14.2267 6.64577 14.9323 6.91832C15.6379 7.19087 16.537 7.37648 17.5157 7.45168C18.4944 7.52688 19.5089 7.48828 20.4308 7.34078C21.3527 7.19327 22.1407 6.94348 22.6951 6.623C23.2495 6.30251 23.5455 5.92571 23.5455 5.54027C23.5455 5.0234 23.0139 4.52769 22.0677 4.16221C21.1215 3.79673 19.8381 3.5914 18.5 3.5914ZM18.5 6.18989C18.1674 6.18989 17.8422 6.15179 17.5656 6.08041C17.2891 6.00902 17.0735 5.90757 16.9462 5.78886C16.8189 5.67016 16.7856 5.53954 16.8505 5.41353C16.9154 5.28752 17.0756 5.17177 17.3108 5.08091C17.546 4.99006 17.8457 4.92819 18.1719 4.90313C18.4981 4.87806 18.8363 4.89093 19.1436 4.94009C19.4509 4.98926 19.7136 5.07253 19.8984 5.17936C20.0832 5.28618 20.1818 5.41178 20.1818 5.54027C20.1818 5.71256 20.0046 5.87779 19.6892 5.99962C19.3738 6.12144 18.946 6.18989 18.5 6.18989ZM28.5909 4.89064C28.2583 4.89064 27.9331 4.92874 27.6565 5.00013C27.38 5.07151 27.1644 5.17296 27.0371 5.29167C26.9098 5.41037 26.8765 5.54099 26.9414 5.667C27.0063 5.79301 27.1665 5.90877 27.4017 5.99962C27.6369 6.09047 27.9366 6.15234 28.2628 6.1774C28.589 6.20247 28.9272 6.1896 29.2345 6.14044C29.5418 6.09127 29.8045 6.00801 29.9893 5.90118C30.1741 5.79435 30.2727 5.66875 30.2727 5.54027C30.2727 5.36798 30.0955 5.20274 29.7801 5.08091C29.4647 4.95909 29.037 4.89064 28.5909 4.89064Z" fill="white"/>
</svg>
